<?xml version="1.0" encoding="UTF-8"?>
<!DOCTYPE svg PUBLIC "-//W3C//DTD SVG 1.1//EN" "http://www.w3.org/Graphics/SVG/1.1/DTD/svg11.dtd">
<svg version="1.2" xmlns="http://www.w3.org/2000/svg" xmlns:xlink="http://www.w3.org/1999/xlink" x="89mm" y="80mm" width="1282mm" height="497mm" viewBox="89 80 1282 497">
<style type="text/css"><![CDATA[
text { font:12px Dialog; }
]]></style>
<line x1="260" y1="440" x2="530" y2="440" style="fill:none;stroke:rgb(64,64,64);stroke-linecap:square" />
<line x1="530" y1="440" x2="260" y2="440" style="fill:none;stroke:rgb(64,64,64);stroke-linecap:square" />
<line x1="260" y1="440" x2="260" y2="530" style="fill:none;stroke:rgb(64,64,64);stroke-linecap:square" />
<line x1="260" y1="530" x2="860" y2="530" style="fill:none;stroke:rgb(64,64,64);stroke-linecap:square" />
<line x1="260" y1="440" x2="860" y2="440" style="fill:none;stroke:rgb(64,64,64);stroke-linecap:square" />
<line x1="510" y1="175" x2="510" y2="350" style="fill:none;stroke:rgb(64,64,64);stroke-linecap:square" />
<line x1="510" y1="350" x2="860" y2="350" style="fill:none;stroke:rgb(64,64,64);stroke-linecap:square" />
<line x1="530" y1="175" x2="530" y2="250" style="fill:none;stroke:rgb(64,64,64);stroke-linecap:square" />
<line x1="530" y1="250" x2="860" y2="250" style="fill:none;stroke:rgb(64,64,64);stroke-linecap:square" />
<line x1="620" y1="160" x2="860" y2="160" style="fill:none;stroke:rgb(64,64,64);stroke-linecap:square" />
<line x1="260" y1="150" x2="470" y2="150" style="fill:none;stroke:rgb(64,64,64);stroke-dasharray:7;stroke-dashoffset:0" />
<polyline points="450,158 470,150 450,142" style="fill:none;stroke:rgb(64,64,64);stroke-linecap:square" />
<rect x="860" y="500" width="150" height="55" style="fill:rgb(4,255,0);stroke:none" />
<rect x="860" y="500" width="150" height="55" style="fill:none;stroke:rgb(65,65,65);stroke-width:1.2;stroke-linecap:square" />
<text x="886" y="522" style="font:12px Ubuntu">ConfigGenerator</text>
<line x1="860" y1="535" x2="1010" y2="535" style="fill:none;stroke:rgb(65,65,65);stroke-width:1.2;stroke-linecap:square" />
<line x1="860" y1="545" x2="1010" y2="545" style="fill:none;stroke:rgb(65,65,65);stroke-width:1.2;stroke-linecap:square" />
<rect x="860" y="430" width="150" height="55" style="fill:rgb(4,255,0);stroke:none" />
<rect x="860" y="430" width="150" height="55" style="fill:none;stroke:rgb(65,65,65);stroke-width:1.2;stroke-linecap:square" />
<text x="878" y="452" style="font:12px Ubuntu">TemplateGenerator</text>
<line x1="860" y1="465" x2="1010" y2="465" style="fill:none;stroke:rgb(65,65,65);stroke-width:1.2;stroke-linecap:square" />
<line x1="860" y1="475" x2="1010" y2="475" style="fill:none;stroke:rgb(65,65,65);stroke-width:1.2;stroke-linecap:square" />
<rect x="110" y="410" width="150" height="55" style="fill:rgb(0,168,255);stroke:none" />
<rect x="110" y="410" width="150" height="55" style="fill:none;stroke:rgb(65,65,65);stroke-width:1.2;stroke-linecap:square" />
<text x="175" y="432" style="font:12px Ubuntu">Init</text>
<line x1="110" y1="445" x2="260" y2="445" style="fill:none;stroke:rgb(65,65,65);stroke-width:1.2;stroke-linecap:square" />
<line x1="110" y1="455" x2="260" y2="455" style="fill:none;stroke:rgb(65,65,65);stroke-width:1.2;stroke-linecap:square" />
<rect x="110" y="120" width="150" height="55" style="fill:rgb(255,247,225);stroke:none" />
<rect x="110" y="120" width="150" height="55" style="fill:none;stroke:rgb(65,65,65);stroke-width:1.2;stroke-linecap:square" />
<text x="170" y="142" style="font:12px Ubuntu">Build</text>
<line x1="110" y1="155" x2="260" y2="155" style="fill:none;stroke:rgb(65,65,65);stroke-width:1.2;stroke-linecap:square" />
<line x1="110" y1="165" x2="260" y2="165" style="fill:none;stroke:rgb(65,65,65);stroke-width:1.2;stroke-linecap:square" />
<rect x="860" y="220" width="150" height="55" style="fill:rgb(255,247,225);stroke:none" />
<rect x="860" y="220" width="150" height="55" style="fill:none;stroke:rgb(65,65,65);stroke-width:1.2;stroke-linecap:square" />
<text x="902" y="242" style="font:12px Ubuntu">PageParser</text>
<line x1="860" y1="255" x2="1010" y2="255" style="fill:none;stroke:rgb(65,65,65);stroke-width:1.2;stroke-linecap:square" />
<line x1="860" y1="265" x2="1010" y2="265" style="fill:none;stroke:rgb(65,65,65);stroke-width:1.2;stroke-linecap:square" />
<rect x="860" y="120" width="150" height="55" style="fill:rgb(255,247,225);stroke:none" />
<rect x="860" y="120" width="150" height="55" style="fill:none;stroke:rgb(65,65,65);stroke-width:1.2;stroke-linecap:square" />
<text x="903" y="142" style="font:12px Ubuntu">JsonParser</text>
<line x1="860" y1="155" x2="1010" y2="155" style="fill:none;stroke:rgb(65,65,65);stroke-width:1.2;stroke-linecap:square" />
<line x1="860" y1="165" x2="1010" y2="165" style="fill:none;stroke:rgb(65,65,65);stroke-width:1.2;stroke-linecap:square" />
<rect x="860" y="330" width="150" height="55" style="fill:rgb(4,255,0);stroke:none" />
<rect x="860" y="330" width="150" height="55" style="fill:none;stroke:rgb(65,65,65);stroke-width:1.2;stroke-linecap:square" />
<text x="875" y="352" style="font:12px Ubuntu">TemplateInterpretor</text>
<line x1="860" y1="365" x2="1010" y2="365" style="fill:none;stroke:rgb(65,65,65);stroke-width:1.2;stroke-linecap:square" />
<line x1="860" y1="375" x2="1010" y2="375" style="fill:none;stroke:rgb(65,65,65);stroke-width:1.2;stroke-linecap:square" />
<rect x="470" y="120" width="150" height="55" style="fill:rgb(0,168,255);stroke:none" />
<rect x="470" y="120" width="150" height="55" style="fill:none;stroke:rgb(65,65,65);stroke-width:1.2;stroke-linecap:square" />
<text x="516" y="142" style="font:12px Ubuntu">Converter</text>
<line x1="470" y1="155" x2="620" y2="155" style="fill:none;stroke:rgb(65,65,65);stroke-width:1.2;stroke-linecap:square" />
<line x1="470" y1="165" x2="620" y2="165" style="fill:none;stroke:rgb(65,65,65);stroke-width:1.2;stroke-linecap:square" />
<polygon points="1220,130 1335,130 1350,145 1350,175 1220,175" style="fill:rgb(255,247,225);stroke:none" />
<polygon points="1220,130 1335,130 1350,145 1350,175 1220,175" style="fill:none;stroke:rgb(64,64,64);stroke-width:1.2;stroke-linecap:square" />
<line x1="1335" y1="130" x2="1335" y2="145" style="fill:none;stroke:rgb(64,64,64);stroke-width:1.2;stroke-linecap:square" />
<line x1="1335" y1="145" x2="1350" y2="145" style="fill:none;stroke:rgb(64,64,64);stroke-width:1.2;stroke-linecap:square" />
<text x="1225" y="150" style="font:12px Ubuntu">Blue: </text>
<text x="1258" y="150" style="font:12px Ubuntu">To </text>
<text x="1276" y="150" style="font:12px Ubuntu">modify </text>
<text x="1225" y="165" style="font:12px Ubuntu">Green: </text>
<text x="1266" y="165" style="font:12px Ubuntu">To </text>
<text x="1284" y="165" style="font:12px Ubuntu">Create </text>
<text x="473" y="553" style="font:14px Ubuntu">Generate ConfigFiles</text>
<text x="265" y="432" style="font:14px Ubuntu">1</text>
<text x="847" y="522" style="font:14px Ubuntu">1</text>
<text x="485" y="428" style="font:14px Ubuntu">Generate Template files</text>
<text x="265" y="432" style="font:14px Ubuntu">1</text>
<text x="847" y="432" style="font:14px Ubuntu">1</text>
<text x="606" y="338" style="font:14px Ubuntu">InjectData into template</text>
<text x="497" y="193" style="font:14px Ubuntu">1</text>
<text x="829" y="316" style="font:14px Ubuntu">1</text>
<text x="624" y="268" style="font:14px Ubuntu">Extract data from .md</text>
<text x="517" y="193" style="font:14px Ubuntu">1</text>
<text x="847" y="242" style="font:14px Ubuntu">1</text>
<text x="637" y="175" style="font:14px Ubuntu">Read config Data</text>
<text x="625" y="152" style="font:14px Ubuntu">1</text>
<text x="847" y="152" style="font:14px Ubuntu">1</text>
<text x="336" y="172" style="font:14px Ubuntu">Includes</text>
<path d="M90,81 L90,111 L169,111 Q199,111 199,81 L90,81" style="fill:rgb(255,247,225);stroke:none" />
<path d="M90,81 L90,111 L169,111 Q199,111 199,81 L90,81" style="fill:none;stroke:rgb(65,65,65);stroke-width:1.2;stroke-linecap:square" />
<text x="95" y="103" style="font:16px Ubuntu">WHITE GEN</text>
<rect x="90" y="81" width="1279" height="494" style="fill:none;stroke:rgb(64,64,64);stroke-linecap:square" />
</svg>
